<svg width="605" height="350" xmlns="http://www.w3.org/2000/svg" xmlns:xlink="http://www.w3.org/1999/xlink" overflow="hidden"><defs><clipPath id="clip0"><rect x="0" y="0" width="605" height="350"/></clipPath></defs><g clip-path="url(#clip0)"><path d="M0 0 606.111 0 606.111 350.177 0 350.177Z" stroke="#FFFFFF" stroke-width="1.31817" stroke-linecap="round" stroke-linejoin="round" stroke-miterlimit="10" fill="#FFFFFF" transform="matrix(1.0002 0 0 -1 0 349.935)"/><path d="M41.0357 38.5102 599.36 38.5102 599.36 343.426 41.0357 343.426Z" fill="#FFFFFF" transform="matrix(1.0002 0 0 -1 0 349.935)"/><path d="M41.0357 87.0238 599.36 87.0238" stroke="#EBEBEB" stroke-width="0.652925" stroke-linejoin="round" stroke-miterlimit="10" fill="none" transform="matrix(1.0002 0 0 -1 0 349.935)"/><path d="M41.0357 156.32 599.36 156.32" stroke="#EBEBEB" stroke-width="0.652925" stroke-linejoin="round" stroke-miterlimit="10" fill="none" transform="matrix(1.0002 0 0 -1 0 349.935)"/><path d="M41.0357 225.616 599.36 225.616" stroke="#EBEBEB" stroke-width="0.652925" stroke-linejoin="round" stroke-miterlimit="10" fill="none" transform="matrix(1.0002 0 0 -1 0 349.935)"/><path d="M41.0357 294.913 599.36 294.913" stroke="#EBEBEB" stroke-width="0.652925" stroke-linejoin="round" stroke-miterlimit="10" fill="none" transform="matrix(1.0002 0 0 -1 0 349.935)"/><path d="M121.013 38.5102 121.013 343.426" stroke="#EBEBEB" stroke-width="0.652925" stroke-linejoin="round" stroke-miterlimit="10" fill="none" transform="matrix(1.0002 0 0 -1 0 349.935)"/><path d="M305.581 38.5102 305.581 343.426" stroke="#EBEBEB" stroke-width="0.652925" stroke-linejoin="round" stroke-miterlimit="10" fill="none" transform="matrix(1.0002 0 0 -1 0 349.935)"/><path d="M490.149 38.5102 490.149 343.426" stroke="#EBEBEB" stroke-width="0.652925" stroke-linejoin="round" stroke-miterlimit="10" fill="none" transform="matrix(1.0002 0 0 -1 0 349.935)"/><path d="M41.0357 52.3695 599.36 52.3695" stroke="#EBEBEB" stroke-width="1.31817" stroke-linejoin="round" stroke-miterlimit="10" fill="none" transform="matrix(1.0002 0 0 -1 0 349.935)"/><path d="M41.0357 121.666 599.36 121.666" stroke="#EBEBEB" stroke-width="1.31817" stroke-linejoin="round" stroke-miterlimit="10" fill="none" transform="matrix(1.0002 0 0 -1 0 349.935)"/><path d="M41.0357 190.974 599.36 190.974" stroke="#EBEBEB" stroke-width="1.31817" stroke-linejoin="round" stroke-miterlimit="10" fill="none" transform="matrix(1.0002 0 0 -1 0 349.935)"/><path d="M41.0357 260.271 599.36 260.271" stroke="#EBEBEB" stroke-width="1.31817" stroke-linejoin="round" stroke-miterlimit="10" fill="none" transform="matrix(1.0002 0 0 -1 0 349.935)"/><path d="M41.0357 329.567 599.36 329.567" stroke="#EBEBEB" stroke-width="1.31817" stroke-linejoin="round" stroke-miterlimit="10" fill="none" transform="matrix(1.0002 0 0 -1 0 349.935)"/><path d="M213.297 38.5102 213.297 343.426" stroke="#EBEBEB" stroke-width="1.31817" stroke-linejoin="round" stroke-miterlimit="10" fill="none" transform="matrix(1.0002 0 0 -1 0 349.935)"/><path d="M397.865 38.5102 397.865 343.426" stroke="#EBEBEB" stroke-width="1.31817" stroke-linejoin="round" stroke-miterlimit="10" fill="none" transform="matrix(1.0002 0 0 -1 0 349.935)"/><path d="M582.421 38.5102 582.421 343.426" stroke="#EBEBEB" stroke-width="1.31817" stroke-linejoin="round" stroke-miterlimit="10" fill="none" transform="matrix(1.0002 0 0 -1 0 349.935)"/><path d="M286.757 38.5102 286.757 173.641" stroke="#BEBEBE" stroke-width="5.26036" stroke-linejoin="round" stroke-miterlimit="10" fill="none" transform="matrix(1.0002 0 0 -1 0 349.935)"/><path d="M286.757 38.5102 286.757 173.641" stroke="#BEBEBE" stroke-width="5.26036" stroke-linejoin="round" stroke-miterlimit="10" fill="none" transform="matrix(1.0002 0 0 -1 0 349.935)"/><path d="M286.757 38.5102 286.757 173.641" stroke="#BEBEBE" stroke-width="5.26036" stroke-linejoin="round" stroke-miterlimit="10" fill="none" transform="matrix(1.0002 0 0 -1 0 349.935)"/><path d="M286.757 38.5102 286.757 173.641" stroke="#BEBEBE" stroke-width="5.26036" stroke-linejoin="round" stroke-miterlimit="10" fill="none" transform="matrix(1.0002 0 0 -1 0 349.935)"/><path d="M286.757 38.5102 286.757 173.641" stroke="#BEBEBE" stroke-width="5.26036" stroke-linejoin="round" stroke-miterlimit="10" fill="none" transform="matrix(1.0002 0 0 -1 0 349.935)"/><path d="M286.757 38.5102 286.757 173.641" stroke="#BEBEBE" stroke-width="5.26036" stroke-linejoin="round" stroke-miterlimit="10" fill="none" transform="matrix(1.0002 0 0 -1 0 349.935)"/><path d="M286.757 38.5102 286.757 173.641" stroke="#BEBEBE" stroke-width="5.26036" stroke-linejoin="round" stroke-miterlimit="10" fill="none" transform="matrix(1.0002 0 0 -1 0 349.935)"/><path d="M286.757 38.5102 286.757 173.641" stroke="#BEBEBE" stroke-width="5.26036" stroke-linejoin="round" stroke-miterlimit="10" fill="none" transform="matrix(1.0002 0 0 -1 0 349.935)"/><path d="M286.757 38.5102 286.757 173.641" stroke="#BEBEBE" stroke-width="5.26036" stroke-linejoin="round" stroke-miterlimit="10" fill="none" transform="matrix(1.0002 0 0 -1 0 349.935)"/><path d="M286.757 38.5102 286.757 173.641" stroke="#BEBEBE" stroke-width="5.26036" stroke-linejoin="round" stroke-miterlimit="10" fill="none" transform="matrix(1.0002 0 0 -1 0 349.935)"/><path d="M286.757 38.5102 286.757 173.641" stroke="#BEBEBE" stroke-width="5.26036" stroke-linejoin="round" stroke-miterlimit="10" fill="none" transform="matrix(1.0002 0 0 -1 0 349.935)"/><path d="M286.757 38.5102 286.757 173.641" stroke="#BEBEBE" stroke-width="5.26036" stroke-linejoin="round" stroke-miterlimit="10" fill="none" transform="matrix(1.0002 0 0 -1 0 349.935)"/><path d="M454.005 38.5102 454.005 96.1278" stroke="#BEBEBE" stroke-width="5.26036" stroke-linejoin="round" stroke-miterlimit="10" fill="none" transform="matrix(1.0002 0 0 -1 0 349.935)"/><path d="M454.005 38.5102 454.005 96.1278" stroke="#BEBEBE" stroke-width="5.26036" stroke-linejoin="round" stroke-miterlimit="10" fill="none" transform="matrix(1.0002 0 0 -1 0 349.935)"/><path d="M454.005 38.5102 454.005 96.1278" stroke="#BEBEBE" stroke-width="5.26036" stroke-linejoin="round" stroke-miterlimit="10" fill="none" transform="matrix(1.0002 0 0 -1 0 349.935)"/><path d="M454.005 38.5102 454.005 96.1278" stroke="#BEBEBE" stroke-width="5.26036" stroke-linejoin="round" stroke-miterlimit="10" fill="none" transform="matrix(1.0002 0 0 -1 0 349.935)"/><path d="M454.005 38.5102 454.005 96.1278" stroke="#BEBEBE" stroke-width="5.26036" stroke-linejoin="round" stroke-miterlimit="10" fill="none" transform="matrix(1.0002 0 0 -1 0 349.935)"/><path d="M454.005 38.5102 454.005 96.1278" stroke="#BEBEBE" stroke-width="5.26036" stroke-linejoin="round" stroke-miterlimit="10" fill="none" transform="matrix(1.0002 0 0 -1 0 349.935)"/><path d="M454.005 38.5102 454.005 96.1278" stroke="#BEBEBE" stroke-width="5.26036" stroke-linejoin="round" stroke-miterlimit="10" fill="none" transform="matrix(1.0002 0 0 -1 0 349.935)"/><path d="M454.005 38.5102 454.005 96.1278" stroke="#BEBEBE" stroke-width="5.26036" stroke-linejoin="round" stroke-miterlimit="10" fill="none" transform="matrix(1.0002 0 0 -1 0 349.935)"/><path d="M454.005 38.5102 454.005 96.1278" stroke="#BEBEBE" stroke-width="5.26036" stroke-linejoin="round" stroke-miterlimit="10" fill="none" transform="matrix(1.0002 0 0 -1 0 349.935)"/><path d="M454.005 38.5102 454.005 96.1278" stroke="#BEBEBE" stroke-width="5.26036" stroke-linejoin="round" stroke-miterlimit="10" fill="none" transform="matrix(1.0002 0 0 -1 0 349.935)"/><path d="M454.005 38.5102 454.005 96.1278" stroke="#BEBEBE" stroke-width="5.26036" stroke-linejoin="round" stroke-miterlimit="10" fill="none" transform="matrix(1.0002 0 0 -1 0 349.935)"/><path d="M454.005 38.5102 454.005 96.1278" stroke="#BEBEBE" stroke-width="5.26036" stroke-linejoin="round" stroke-miterlimit="10" fill="none" transform="matrix(1.0002 0 0 -1 0 349.935)"/><path d="M541.878 38.5102 541.878 173.641" stroke="#BEBEBE" stroke-width="5.26036" stroke-linejoin="round" stroke-miterlimit="10" fill="none" transform="matrix(1.0002 0 0 -1 0 349.935)"/><path d="M541.878 38.5102 541.878 173.641" stroke="#BEBEBE" stroke-width="5.26036" stroke-linejoin="round" stroke-miterlimit="10" fill="none" transform="matrix(1.0002 0 0 -1 0 349.935)"/><path d="M541.878 38.5102 541.878 173.641" stroke="#BEBEBE" stroke-width="5.26036" stroke-linejoin="round" stroke-miterlimit="10" fill="none" transform="matrix(1.0002 0 0 -1 0 349.935)"/><path d="M541.878 38.5102 541.878 173.641" stroke="#BEBEBE" stroke-width="5.26036" stroke-linejoin="round" stroke-miterlimit="10" fill="none" transform="matrix(1.0002 0 0 -1 0 349.935)"/><path d="M541.878 38.5102 541.878 173.641" stroke="#BEBEBE" stroke-width="5.26036" stroke-linejoin="round" stroke-miterlimit="10" fill="none" transform="matrix(1.0002 0 0 -1 0 349.935)"/><path d="M541.878 38.5102 541.878 173.641" stroke="#BEBEBE" stroke-width="5.26036" stroke-linejoin="round" stroke-miterlimit="10" fill="none" transform="matrix(1.0002 0 0 -1 0 349.935)"/><path d="M541.878 38.5102 541.878 173.641" stroke="#BEBEBE" stroke-width="5.26036" stroke-linejoin="round" stroke-miterlimit="10" fill="none" transform="matrix(1.0002 0 0 -1 0 349.935)"/><path d="M541.878 38.5102 541.878 173.641" stroke="#BEBEBE" stroke-width="5.26036" stroke-linejoin="round" stroke-miterlimit="10" fill="none" transform="matrix(1.0002 0 0 -1 0 349.935)"/><path d="M541.878 38.5102 541.878 173.641" stroke="#BEBEBE" stroke-width="5.26036" stroke-linejoin="round" stroke-miterlimit="10" fill="none" transform="matrix(1.0002 0 0 -1 0 349.935)"/><path d="M541.878 38.5102 541.878 173.641" stroke="#BEBEBE" stroke-width="5.26036" stroke-linejoin="round" stroke-miterlimit="10" fill="none" transform="matrix(1.0002 0 0 -1 0 349.935)"/><path d="M541.878 38.5102 541.878 173.641" stroke="#BEBEBE" stroke-width="5.26036" stroke-linejoin="round" stroke-miterlimit="10" fill="none" transform="matrix(1.0002 0 0 -1 0 349.935)"/><path d="M541.878 38.5102 541.878 173.641" stroke="#BEBEBE" stroke-width="5.26036" stroke-linejoin="round" stroke-miterlimit="10" fill="none" transform="matrix(1.0002 0 0 -1 0 349.935)"/><path d="M121.974 329.567 177.534 262.698 231.185 210.032 286.745 173.986 342.305 146.612 397.865 125.83 453.426 96.0292 508.986 109.199 535.953 151.466 564.546 277.247 573.983 322.643" stroke="#000000" stroke-width="5.26036" stroke-linejoin="round" stroke-miterlimit="10" fill="none" transform="matrix(1.0002 0 0 -1 0 349.935)"/><path d="M41.0357 96.1278 599.36 96.1278" stroke="#000000" stroke-width="1.31817" stroke-linejoin="round" stroke-miterlimit="10" fill="none" transform="matrix(1.0002 0 0 -1 0 349.935)"/><path d="M41.0357 173.641 286.757 173.641" stroke="#000000" stroke-width="0.874478" stroke-linejoin="round" stroke-miterlimit="10" fill="none" transform="matrix(1.0002 0 0 -1 0 349.935)"/><path d="M84.3012 38.5102 84.3012 35.0239" stroke="#000000" stroke-width="1.31817" stroke-linecap="round" stroke-linejoin="round" stroke-miterlimit="10" fill="none" transform="matrix(1.0002 0 0 -1 0 349.935)"/><path d="M116.8 38.5102 116.8 35.0239" stroke="#000000" stroke-width="1.31817" stroke-linecap="round" stroke-linejoin="round" stroke-miterlimit="10" fill="none" transform="matrix(1.0002 0 0 -1 0 349.935)"/><path d="M139.861 38.5102 139.861 35.0239" stroke="#000000" stroke-width="1.31817" stroke-linecap="round" stroke-linejoin="round" stroke-miterlimit="10" fill="none" transform="matrix(1.0002 0 0 -1 0 349.935)"/><path d="M157.737 38.5102 157.737 31.5252" stroke="#000000" stroke-width="1.31817" stroke-linecap="round" stroke-linejoin="round" stroke-miterlimit="10" fill="none" transform="matrix(1.0002 0 0 -1 0 349.935)"/><path d="M172.36 38.5102 172.36 35.0239" stroke="#000000" stroke-width="1.31817" stroke-linecap="round" stroke-linejoin="round" stroke-miterlimit="10" fill="none" transform="matrix(1.0002 0 0 -1 0 349.935)"/><path d="M184.716 38.5102 184.716 35.0239" stroke="#000000" stroke-width="1.31817" stroke-linecap="round" stroke-linejoin="round" stroke-miterlimit="10" fill="none" transform="matrix(1.0002 0 0 -1 0 349.935)"/><path d="M195.409 38.5102 195.409 35.0239" stroke="#000000" stroke-width="1.31817" stroke-linecap="round" stroke-linejoin="round" stroke-miterlimit="10" fill="none" transform="matrix(1.0002 0 0 -1 0 349.935)"/><path d="M204.858 38.5102 204.858 35.0239" stroke="#000000" stroke-width="1.31817" stroke-linecap="round" stroke-linejoin="round" stroke-miterlimit="10" fill="none" transform="matrix(1.0002 0 0 -1 0 349.935)"/><path d="M213.297 38.5102 213.297 28.0388" stroke="#000000" stroke-width="1.31817" stroke-linecap="round" stroke-linejoin="round" stroke-miterlimit="10" fill="none" transform="matrix(1.0002 0 0 -1 0 349.935)"/><path d="M268.857 38.5102 268.857 35.0239" stroke="#000000" stroke-width="1.31817" stroke-linecap="round" stroke-linejoin="round" stroke-miterlimit="10" fill="none" transform="matrix(1.0002 0 0 -1 0 349.935)"/><path d="M301.356 38.5102 301.356 35.0239" stroke="#000000" stroke-width="1.31817" stroke-linecap="round" stroke-linejoin="round" stroke-miterlimit="10" fill="none" transform="matrix(1.0002 0 0 -1 0 349.935)"/><path d="M324.417 38.5102 324.417 35.0239" stroke="#000000" stroke-width="1.31817" stroke-linecap="round" stroke-linejoin="round" stroke-miterlimit="10" fill="none" transform="matrix(1.0002 0 0 -1 0 349.935)"/><path d="M342.305 38.5102 342.305 31.5252" stroke="#000000" stroke-width="1.31817" stroke-linecap="round" stroke-linejoin="round" stroke-miterlimit="10" fill="none" transform="matrix(1.0002 0 0 -1 0 349.935)"/><path d="M356.916 38.5102 356.916 35.0239" stroke="#000000" stroke-width="1.31817" stroke-linecap="round" stroke-linejoin="round" stroke-miterlimit="10" fill="none" transform="matrix(1.0002 0 0 -1 0 349.935)"/><path d="M369.272 38.5102 369.272 35.0239" stroke="#000000" stroke-width="1.31817" stroke-linecap="round" stroke-linejoin="round" stroke-miterlimit="10" fill="none" transform="matrix(1.0002 0 0 -1 0 349.935)"/><path d="M379.978 38.5102 379.978 35.0239" stroke="#000000" stroke-width="1.31817" stroke-linecap="round" stroke-linejoin="round" stroke-miterlimit="10" fill="none" transform="matrix(1.0002 0 0 -1 0 349.935)"/><path d="M389.414 38.5102 389.414 35.0239" stroke="#000000" stroke-width="1.31817" stroke-linecap="round" stroke-linejoin="round" stroke-miterlimit="10" fill="none" transform="matrix(1.0002 0 0 -1 0 349.935)"/><path d="M397.865 38.5102 397.865 28.0388" stroke="#000000" stroke-width="1.31817" stroke-linecap="round" stroke-linejoin="round" stroke-miterlimit="10" fill="none" transform="matrix(1.0002 0 0 -1 0 349.935)"/><path d="M453.426 38.5102 453.426 35.0239" stroke="#000000" stroke-width="1.31817" stroke-linecap="round" stroke-linejoin="round" stroke-miterlimit="10" fill="none" transform="matrix(1.0002 0 0 -1 0 349.935)"/><path d="M485.924 38.5102 485.924 35.0239" stroke="#000000" stroke-width="1.31817" stroke-linecap="round" stroke-linejoin="round" stroke-miterlimit="10" fill="none" transform="matrix(1.0002 0 0 -1 0 349.935)"/><path d="M508.986 38.5102 508.986 35.0239" stroke="#000000" stroke-width="1.31817" stroke-linecap="round" stroke-linejoin="round" stroke-miterlimit="10" fill="none" transform="matrix(1.0002 0 0 -1 0 349.935)"/><path d="M526.873 38.5102 526.873 31.5252" stroke="#000000" stroke-width="1.31817" stroke-linecap="round" stroke-linejoin="round" stroke-miterlimit="10" fill="none" transform="matrix(1.0002 0 0 -1 0 349.935)"/><path d="M541.484 38.5102 541.484 35.0239" stroke="#000000" stroke-width="1.31817" stroke-linecap="round" stroke-linejoin="round" stroke-miterlimit="10" fill="none" transform="matrix(1.0002 0 0 -1 0 349.935)"/><path d="M553.84 38.5102 553.84 35.0239" stroke="#000000" stroke-width="1.31817" stroke-linecap="round" stroke-linejoin="round" stroke-miterlimit="10" fill="none" transform="matrix(1.0002 0 0 -1 0 349.935)"/><path d="M564.546 38.5102 564.546 35.0239" stroke="#000000" stroke-width="1.31817" stroke-linecap="round" stroke-linejoin="round" stroke-miterlimit="10" fill="none" transform="matrix(1.0002 0 0 -1 0 349.935)"/><path d="M573.983 38.5102 573.983 35.0239" stroke="#000000" stroke-width="1.31817" stroke-linecap="round" stroke-linejoin="round" stroke-miterlimit="10" fill="none" transform="matrix(1.0002 0 0 -1 0 349.935)"/><path d="M582.421 38.5102 582.421 28.0388" stroke="#000000" stroke-width="1.31817" stroke-linecap="round" stroke-linejoin="round" stroke-miterlimit="10" fill="none" transform="matrix(1.0002 0 0 -1 0 349.935)"/><text font-family="Arial,Arial_MSFontService,sans-serif" font-weight="400" font-size="11" transform="matrix(1.23218 0 0 1.23193 46.7241 171)">C<tspan font-size="11" x="7.942" y="0">u</tspan><tspan font-size="11" x="14.058" y="0">t</tspan><tspan font-size="11" x="17.116" y="0">o</tspan><tspan font-size="11" x="23.232" y="0">f</tspan><tspan font-size="11" x="26.29" y="0">f</tspan><tspan font-size="11" x="29.348" y="0"> </tspan><tspan font-size="11" x="32.406" y="0">l</tspan><tspan font-size="11" x="34.848" y="0">e</tspan><tspan font-size="11" x="40.634" y="0">v</tspan><tspan font-size="11" x="45.859" y="0">e</tspan><tspan font-size="11" x="51.975" y="0">l</tspan><tspan font-size="11" x="54.417" y="0"> </tspan><tspan font-size="11" x="57.475" y="0">(</tspan><tspan font-size="11" x="61.138" y="0">d</tspan><tspan font-size="11" x="67.254" y="0">B</tspan><tspan font-size="11" x="74.591" y="0">)</tspan><tspan font-size="11" x="-0.169999" y="62.5034">B</tspan><tspan font-size="11" x="7.167" y="62.5034">e</tspan><tspan font-size="11" x="13.283" y="62.5034">s</tspan><tspan font-size="11" x="18.783" y="62.5034">t</tspan><tspan font-size="11" x="21.841" y="62.5034"> </tspan><tspan font-size="11" x="24.899" y="62.5034">s</tspan><tspan font-size="11" x="30.399" y="62.5034">e</tspan><tspan font-size="11" x="36.515" y="62.5034">n</tspan><tspan font-size="11" x="42.631" y="62.5034">s</tspan><tspan font-size="11" x="48.131" y="62.5034">i</tspan><tspan font-size="11" x="50.573" y="62.5034">t</tspan><tspan font-size="11" x="53.631" y="62.5034">i</tspan><tspan font-size="11" x="56.073" y="62.5034">v</tspan><tspan font-size="11" x="61.573" y="62.5034">i</tspan><tspan font-size="11" x="64.015" y="62.5034">t</tspan><tspan font-size="11" x="67.073" y="62.5034">y</tspan><tspan font-size="11" x="72.573" y="62.5034"> </tspan><tspan font-size="11" x="75.631" y="62.5034">(</tspan><tspan font-size="11" x="79.294" y="62.5034">d</tspan><tspan font-size="11" x="85.41" y="62.5034">B</tspan><tspan font-size="11" x="92.747" y="62.5034">)</tspan></text><text fill="#0D0000" font-family="Arial,Arial_MSFontService,sans-serif" font-weight="400" font-size="11" transform="matrix(0 -1.23193 1.23218 0 290.775 161)">L<tspan font-size="11" x="6.49386" y="0">o</tspan><tspan font-size="11" x="12.176" y="0">w</tspan><tspan font-size="11" x="20.2933" y="0"> </tspan><tspan font-size="11" x="23.5402" y="0">f</tspan><tspan font-size="11" x="26.7872" y="0">r</tspan><tspan font-size="11" x="30.0341" y="0">e</tspan><tspan font-size="11" x="36.5279" y="0">q</tspan><tspan font-size="11" x="42.2101" y="0">u</tspan><tspan font-size="11" x="48.7039" y="0">e</tspan><tspan font-size="11" x="54.386" y="0">n</tspan><tspan font-size="11" x="60.8799" y="0">c</tspan><tspan font-size="11" x="65.7503" y="0">y</tspan><tspan font-size="11" x="71.4324" y="0"> </tspan><tspan font-size="11" x="74.6793" y="0">l</tspan><tspan font-size="11" x="77.1145" y="0">i</tspan><tspan font-size="11" x="79.5497" y="0">m</tspan><tspan font-size="11" x="88.4788" y="0">i</tspan><tspan font-size="11" x="90.914" y="0">t</tspan><tspan font-size="11" x="8.11732" y="205.621">H</tspan><tspan font-size="11" x="16.2346" y="205.621">i</tspan><tspan font-size="11" x="18.6698" y="205.621">g</tspan><tspan font-size="11" x="24.352" y="205.621">h</tspan><tspan font-size="11" x="30.8458" y="205.621"> </tspan><tspan font-size="11" x="33.281" y="205.621">f</tspan><tspan font-size="11" x="36.5279" y="205.621">r</tspan><tspan font-size="11" x="40.5866" y="205.621">e</tspan><tspan font-size="11" x="46.2687" y="205.621">q</tspan><tspan font-size="11" x="52.7626" y="205.621">u</tspan><tspan font-size="11" x="58.4447" y="205.621">e</tspan><tspan font-size="11" x="64.9386" y="205.621">n</tspan><tspan font-size="11" x="70.6207" y="205.621">c</tspan><tspan font-size="11" x="76.3028" y="205.621">y</tspan><tspan font-size="11" x="81.9849" y="205.621"> </tspan><tspan font-size="11" x="85.2319" y="205.621">l</tspan><tspan font-size="11" x="87.6671" y="205.621">i</tspan><tspan font-size="11" x="90.1022" y="205.621">m</tspan><tspan font-size="11" x="99.0313" y="205.621">i</tspan><tspan font-size="11" x="101.466" y="205.621">t</tspan></text><path d="M41.0357 38.5102 599.36 38.5102 599.36 343.426 41.0357 343.426Z" stroke="#333333" stroke-width="1.31817" stroke-linecap="round" stroke-linejoin="round" stroke-miterlimit="10" fill="none" transform="matrix(1.0002 0 0 -1 0 349.935)"/><path d="M541.018 172.733 599.282 172.733" stroke="#000000" stroke-width="0.425822" stroke-linejoin="round" stroke-miterlimit="10" fill="none" transform="matrix(1.0002 0 0 -1 0 349.935)"/><text fill="#4D4D4D" font-family="Arial,Arial_MSFontService,sans-serif" font-weight="400" font-size="9" transform="matrix(1.23218 0 0 1.23193 28.7959 302)">0<tspan font-size="9" x="-5" y="-56.8212">2</tspan><tspan font-size="9" x="0.00399991" y="-56.8212">0</tspan><tspan font-size="9" x="-5" y="-112.831">4</tspan><tspan font-size="9" x="0.00399991" y="-112.831">0</tspan><tspan font-size="9" x="-5" y="-168.84">6</tspan><tspan font-size="9" x="0.00399991" y="-168.84">0</tspan><tspan font-size="9" x="-5" y="-225.661">8</tspan><tspan font-size="9" x="0.00399991" y="-225.661">0</tspan></text><path d="M37.6602 52.3695 41.0357 52.3695" stroke="#333333" stroke-width="1.31817" stroke-linejoin="round" stroke-miterlimit="10" fill="none" transform="matrix(1.0002 0 0 -1 0 349.935)"/><path d="M37.6602 121.666 41.0357 121.666" stroke="#333333" stroke-width="1.31817" stroke-linejoin="round" stroke-miterlimit="10" fill="none" transform="matrix(1.0002 0 0 -1 0 349.935)"/><path d="M37.6602 190.974 41.0357 190.974" stroke="#333333" stroke-width="1.31817" stroke-linejoin="round" stroke-miterlimit="10" fill="none" transform="matrix(1.0002 0 0 -1 0 349.935)"/><path d="M37.6602 260.271 41.0357 260.271" stroke="#333333" stroke-width="1.31817" stroke-linejoin="round" stroke-miterlimit="10" fill="none" transform="matrix(1.0002 0 0 -1 0 349.935)"/><path d="M37.6602 329.567 41.0357 329.567" stroke="#333333" stroke-width="1.31817" stroke-linejoin="round" stroke-miterlimit="10" fill="none" transform="matrix(1.0002 0 0 -1 0 349.935)"/><path d="M213.297 35.1348 213.297 38.5102" stroke="#333333" stroke-width="1.31817" stroke-linejoin="round" stroke-miterlimit="10" fill="none" transform="matrix(1.0002 0 0 -1 0 349.935)"/><path d="M397.865 35.1348 397.865 38.5102" stroke="#333333" stroke-width="1.31817" stroke-linejoin="round" stroke-miterlimit="10" fill="none" transform="matrix(1.0002 0 0 -1 0 349.935)"/><path d="M582.421 35.1348 582.421 38.5102" stroke="#333333" stroke-width="1.31817" stroke-linejoin="round" stroke-miterlimit="10" fill="none" transform="matrix(1.0002 0 0 -1 0 349.935)"/><text fill="#4D4D4D" font-family="Arial,Arial_MSFontService,sans-serif" font-weight="400" font-size="9" transform="matrix(1.23218 0 0 1.23193 204.098 325)">1<tspan font-size="9" x="5.00401" y="0">0</tspan><tspan font-size="9" x="10.008" y="0">0</tspan><tspan font-size="9" x="147.31" y="0">1</tspan><tspan font-size="9" x="152.314" y="0">0</tspan><tspan font-size="9" x="157.318" y="0">0</tspan><tspan font-size="9" x="162.322" y="0">0</tspan><tspan font-size="9" x="294.62" y="0">1</tspan><tspan font-size="9" x="299.624" y="0">0</tspan><tspan font-size="9" x="304.628" y="0">0</tspan><tspan font-size="9" x="309.632" y="0">0</tspan><tspan font-size="9" x="314.636" y="0">0</tspan><tspan fill="#000000" font-size="11" x="56.38" y="12.176">F</tspan><tspan fill="#000000" font-size="11" x="63.101" y="12.176">r</tspan><tspan fill="#000000" font-size="11" x="66.764" y="12.176">e</tspan><tspan fill="#000000" font-size="11" x="72.88" y="12.176">q</tspan><tspan fill="#000000" font-size="11" x="78.996" y="12.176">u</tspan><tspan fill="#000000" font-size="11" x="85.112" y="12.176">e</tspan><tspan fill="#000000" font-size="11" x="91.228" y="12.176">n</tspan><tspan fill="#000000" font-size="11" x="97.344" y="12.176">c</tspan><tspan fill="#000000" font-size="11" x="102.844" y="12.176">y</tspan><tspan fill="#000000" font-size="11" x="108.344" y="12.176"> </tspan><tspan fill="#000000" font-size="11" x="111.402" y="12.176">(</tspan><tspan fill="#000000" font-size="11" x="115.065" y="12.176">H</tspan><tspan fill="#000000" font-size="11" x="123.007" y="12.176">z</tspan><tspan fill="#000000" font-size="11" x="128.507" y="12.176">)</tspan></text><text font-family="Arial,Arial_MSFontService,sans-serif" font-weight="400" font-size="11" transform="matrix(0 -1.23193 1.23218 0 16.4865 218)">T<tspan font-size="11" x="6.49386" y="0">h</tspan><tspan font-size="11" x="12.176" y="0">r</tspan><tspan font-size="11" x="16.2346" y="0">e</tspan><tspan font-size="11" x="21.9168" y="0">s</tspan><tspan font-size="11" x="27.5989" y="0">h</tspan><tspan font-size="11" x="34.0927" y="0">o</tspan><tspan font-size="11" x="39.7749" y="0">l</tspan><tspan font-size="11" x="42.2101" y="0">d</tspan><tspan font-size="11" x="48.7039" y="0"> </tspan><tspan font-size="11" x="51.9508" y="0">(</tspan><tspan font-size="11" x="55.1978" y="0">d</tspan><tspan font-size="11" x="61.6916" y="0">B</tspan><tspan font-size="11" x="68.9972" y="0"> </tspan><tspan font-size="11" x="71.4324" y="0">S</tspan><tspan font-size="11" x="78.738" y="0">P</tspan><tspan font-size="11" x="86.0436" y="0">L</tspan><tspan font-size="11" x="92.5374" y="0">)</tspan><tspan fill="#0D0000" font-size="11" x="-19.4816" y="357.2">B</tspan><tspan fill="#0D0000" font-size="11" x="-12.176" y="357.2">e</tspan><tspan fill="#0D0000" font-size="11" x="-6.49386" y="357.2">s</tspan><tspan fill="#0D0000" font-size="11" x="-0.811732" y="357.2">t</tspan><tspan fill="#0D0000" font-size="11" x="2.4352" y="357.2"> </tspan><tspan fill="#0D0000" font-size="11" x="5.68212" y="357.2">f</tspan><tspan fill="#0D0000" font-size="11" x="8.11732" y="357.2">r</tspan><tspan fill="#0D0000" font-size="11" x="12.176" y="357.2">e</tspan><tspan fill="#0D0000" font-size="11" x="17.8581" y="357.2">q</tspan><tspan fill="#0D0000" font-size="11" x="24.352" y="357.2">u</tspan><tspan fill="#0D0000" font-size="11" x="30.8458" y="357.2">e</tspan><tspan fill="#0D0000" font-size="11" x="36.5279" y="357.2">n</tspan><tspan fill="#0D0000" font-size="11" x="43.0218" y="357.2">c</tspan><tspan fill="#0D0000" font-size="11" x="47.8922" y="357.2">y</tspan></text></g></svg>